<?xml version="1.0" encoding="utf-8" ?>
<svg baseProfile="tiny" height="200" version="1.2" width="300" xmlns="http://www.w3.org/2000/svg" xmlns:ev="http://www.w3.org/2001/xml-events" xmlns:xlink="http://www.w3.org/1999/xlink"><defs /><circle cx="10" cy="50" fill="#d32f2f" r="5" /><circle cx="30" cy="50" fill="#e57373" r="5" /><circle cx="50" cy="50" fill="#ef9a9a" r="5" /><circle cx="70" cy="50" fill="#d32f2f" r="5" /><circle cx="90" cy="50" fill="#e57373" r="5" /><circle cx="10" cy="70" fill="#ef9a9a" r="5" /><circle cx="30" cy="70" fill="#d32f2f" r="5" /><circle cx="50" cy="70" fill="#e57373" r="5" /><circle cx="70" cy="70" fill="#ef9a9a" r="5" /><circle cx="90" cy="70" fill="#d32f2f" r="5" /><circle cx="10" cy="90" fill="#e57373" r="5" /><circle cx="30" cy="90" fill="#ef9a9a" r="5" /><circle cx="50" cy="90" fill="#d32f2f" r="5" /><circle cx="70" cy="90" fill="#e57373" r="5" /><circle cx="90" cy="90" fill="#ef9a9a" r="5" /><circle cx="10" cy="110" fill="#d32f2f" r="5" /><circle cx="30" cy="110" fill="#e57373" r="5" /><circle cx="50" cy="110" fill="#ef9a9a" r="5" /><circle cx="70" cy="110" fill="#d32f2f" r="5" /><circle cx="90" cy="110" fill="#e57373" r="5" /><text fill="red" font-family="Arial" font-size="30px" x="120" y="75">flowMRP</text></svg>